# AST/ASF file generated using VICON BodyLanguage
# -----------------------------------------------
:version 1.10
:name VICON
:units
  mass 1.0
  length 0.45
  angle deg
:documentation
   .ast/.asf automatically generated from VICON data using
   VICON BodyBuilder and BodyLanguage model FoxedUp or BRILLIANT.MOD
:root
   order TX TY TZ RX RY RZ
   axis XYZ
   position 0 0 0  
   orientation 0 0 0 
:bonedata
  begin
     id 1 
     name lhipjoint
     direction 0.612567 -0.751349 0.245431 
     length 2.42285 
     axis 0 0 0  XYZ
  end
  begin
     id 2 
     name lfemur
     direction 0.34202 -0.939693 0  
     length 7.11304  
     axis 0 0 20  XYZ
    dof rx ry rz
    limits (-160.0 20.0)
           (-70.0 70.0)
           (-60.0 70.0)
  end
  begin
     id 3 
     name ltibia
     direction 0.34202 -0.939693 0   
     length 7.84529   
     axis 0 0 20   XYZ
    dof rx
    limits (-10.0 170.0)
  end
  begin
     id 4 
     name lfoot
     direction 0.0779239 -0.214094 0.9737   
     length 1.97176   
     axis -90 7.62852e-016 20   XYZ
    dof rx rz
    limits (-45.0 90.0)
           (-70.0 20.0)
  end
  begin
     id 5 
     name ltoes
     direction 1.53565e-011 -4.21709e-011 1   
     length 0.993197   
     axis -90 7.62852e-016 20   XYZ
    dof rx
    limits (-90.0 20.0)
  end
  begin
     id 6 
     name rhipjoint
     direction -0.665722 -0.709315 0.231701   
     length 2.56642  
     axis 0 0 0  XYZ 
  end
  begin
     id 7 
     name rfemur
     direction -0.34202 -0.939693 0   
     length 7.32108   
     axis 0 0 -20   XYZ
    dof rx ry rz
    limits (-160.0 20.0)
           (-70.0 70.0)
           (-70.0 60.0)
  end
  begin
     id 8 
     name rtibia
     direction -0.34202 -0.939693 0   
     length 7.81254   
     axis 0 0 -20   XYZ
    dof rx
    limits (-10.0 170.0)
 end
 begin
     id 9 
     name rfoot
     direction -0.0832806 -0.228812 0.969902   
     length 2.08278  
     axis -90 -7.62852e-016 -20   XYZ
    dof rx rz
    limits (-45.0 90.0)
           (-20.0 70.0)
  end
  begin
     id 10 
     name rtoes
     direction -1.53589e-011 -4.22086e-011 1   
     length 1.04609   
     axis -90 -7.62852e-016 -20   XYZ
    dof rx
    limits (-90.0 20.0)
  end
  begin
     id 11 
     name lowerback
     direction -0.00506013 0.988403 -0.151766   
     length 2.01978   
     axis 0 0 0   XYZ
    dof rx ry rz
    limits (-20.0 45.0)
           (-30.0 30.0)
           (-30.0 30.0)
  end
  begin
     id 12 
     name upperback
     direction -0.00836389 0.99968 0.0238859   
     length 2.01276   
     axis 0 0 0   XYZ
    dof rx ry rz
    limits (-20.0 45.0)
           (-30.0 30.0)
           (-30.0 30.0)
  end
  begin
     id 13 
     name thorax
     direction -0.00684136 0.995386 0.0957043   
     length 2.07303   
     axis 0 0 0   XYZ
    dof rx ry rz
    limits (-20.0 45.0)
           (-30.0 30.0)
           (-30.0 30.0)
  end
  begin
     id 14 
     name lowerneck
     direction -0.0161045 0.999661 0.0204485   
     length 1.91243   
     axis 0 0 0   XYZ
    dof rx ry rz
    limits (-20.0 45.0)
           (-30.0 30.0)
           (-30.0 30.0)
  end
  begin
     id 15 
     name upperneck
     direction 0.0553583 0.990946 -0.122319   
     length 1.91574   
     axis 0 0 0   XYZ
    dof rx ry rz
    limits (-20.0 45.0)
           (-30.0 30.0)
           (-30.0 30.0)
  end
  begin
     id 16
     name head
     direction 0.0180273 0.998839 -0.0446756  
     length 1.92693  
     axis 0 0 0   XYZ
    dof rx ry rz
    limits (-20.0 45.0)
           (-30.0 30.0)
           (-30.0 30.0)
  end
  begin
     id 17 
     name lclavicle
     direction 0.945646 0.319323 -0.0615358  
     length 4.0076  
     axis 0 0 0   XYZ
    dof ry rz
    limits (-20.0 10.0)
           (0.0 20.0)
  end
  begin
     id 18 
     name lhumerus
     direction 1 -4.48967e-011 -2.79996e-027   
     length 5.64147   
     axis 180 -30 -90   XYZ
    dof rx ry rz
    limits (-60.0 90.0)
           (-90.0 90.0)
           (-90.0 90.0)
  end
  begin
     id 19
     name lradius
     direction 1 -4.48976e-011 -9.5122e-027   
     length 2.86444   
     axis 180 -30 -90   XYZ
    dof rx
    limits (-10.0 170.0)
  end
  begin
     id 20
     name lwrist
     direction 1 -4.48983e-011 -1.24047e-026   
     length 1.43222   
     axis 9.05591e-015 90 90   XYZ
    dof ry
    limits (-180.0 0.0)
 end
  begin
     id 21 
     name lhand
     direction 1 -4.4892e-011 -2.48094e-026   
     length 0.722123   
     axis 1.58305e-014 90 90   XYZ
    dof rx rz
    limits (-90.0 90.0)
           (-45.0 45.0)
  end
  begin
     id 22 
     name lfingers
     direction 1 -4.48895e-011 -4.96187e-026   
     length 0.582194   
     axis 3.1661e-014 90 90   XYZ
    dof rx
    limits (0.0 90.0)
  end
  begin
     id 23
     name lthumb
     direction 0.707107 -6.34961e-011 0.707107   
     length 0.835918   
     axis -90 45 2.85299e-015   XYZ
    dof rx rz
    limits (-45.0 45.0)
           (-45.0 45.0)
  end
  begin
     id 24 
     name rclavicle
     direction -0.932635 0.324218 -0.15835   
     length 3.65819  
     axis 0 0 0   XYZ 
    dof ry rz
    limits (-10.0 20.0)
           (-20.0 0.0)
  end
  begin
     id 25 
     name rhumerus
     direction -1 -4.48965e-011 -4.02296e-027  
     length 5.44729   
     axis 180 30 90   XYZ
    dof rx ry rz
    limits (-90.0 60.0)
           (-90.0 90.0)
           (-90.0 90.0)
  end
  begin
     id 26 
     name rradius
     direction -1 -4.48957e-011 -8.81087e-027   
     length 3.08821   
     axis 180 30 90   XYZ
    dof rx
    limits (-10.0 170.0)
  end
  begin
     id 27 
     name rwrist
     direction -1 -4.49015e-011 -1.24047e-026   
     length 1.5441   
     axis 9.05591e-015 -90 -90   XYZ
    dof ry
    limits (-180.0 0.0)
  end
  begin
     id 28
     name rhand
     direction -1 -4.4891e-011 -2.48094e-026   
     length 0.821049   
     axis 1.58305e-014 -90 -90   XYZ
    dof rx rz
    limits (-90.0 90.0)
           (-45.0 45.0)
  end
  begin
     id 29
     name rfingers
     direction -1 -4.48985e-011 -4.96187e-026   
     length 0.661951   
     axis 3.1661e-014 -90 -90   XYZ
    dof rx
    limits (0.0 90.0)
  end
  begin
     id 30
     name rthumb
     direction -0.707107 -6.34906e-011 0.707107   
     length 0.950433   
     axis -90 -45 -2.85299e-015   XYZ
    dof rx rz
    limits (-45.0 45.0)
           (-45.0 45.0)
  end
:hierarchy
  begin
    root lhipjoint rhipjoint lowerback
    lhipjoint lfemur
    lfemur ltibia
    ltibia lfoot
    lfoot ltoes
    rhipjoint rfemur
    rfemur rtibia
    rtibia rfoot
    rfoot rtoes
    lowerback upperback
    upperback thorax
    thorax lowerneck lclavicle rclavicle
    lowerneck upperneck
    upperneck head
    lclavicle lhumerus
    lhumerus lradius
    lradius lwrist
    lwrist lhand lthumb
    lhand lfingers
    rclavicle rhumerus
    rhumerus rradius
    rradius rwrist
    rwrist rhand rthumb
    rhand rfingers
  end

#!OML:ASF F:\VICON\USERDATA\INSTALL\rory3\rory3.ASF
:FULLY-SPECIFIED
:DEGREES
684
root 3.08258 17.638 0.271385 -190.663 84.0023 -188.358
lowerback 3.96013 1.07512 4.47253
upperback -2.03607 1.80272 1.82564
thorax -4.25369 0.81042 -0.754795
lowerneck -8.27301 -5.86958 -3.1216
upperneck 20.7415 -9.62694 12.1848
head 8.57362 -3.39081 3.68449
rclavicle -1.23246e-014 -2.22639e-014
rhumerus 50.5339 35.2213 -17.9664
rradius 125.197
rwrist -66.0251
rhand -3.98156 5.66779
rfingers 7.12502
rthumb 21.7717 -23.1277
lclavicle -1.23246e-014 -2.22639e-014
lhumerus 56.6617 -47.4167 -1.28314
lradius 124.795
lwrist 101.638
lhand 8.77744 33.7413
lfingers 7.12502
lthumb 33.9659 60.5326
rfemur 1.3385 0.791988 18.005
rtibia 18.8274
rfoot -21.7014 -5.96547
rtoes -2.10778
lfemur 1.72448 1.36415 -17.3104
ltibia 11.4841
lfoot -9.90337 -5.60547
ltoes 3.32241
685
root 3.08909 17.6421 0.271104 -191.436 84.1012 -189.211
lowerback 3.78736 1.05982 4.34698
upperback -2.10905 1.75739 1.6497
thorax -4.23107 0.787192 -0.86002
lowerneck -8.28401 -5.91785 -3.28825
upperneck 20.9454 -9.67909 12.1258
head 8.6539 -3.42436 3.68969
rclavicle -1.05356e-014 -2.62396e-014
rhumerus 49.2549 33.4949 -20.1183
rradius 124.382
rwrist -66.3871
rhand -4.50946 5.80748
rfingers 7.12502
rthumb 21.2647 -23.046
lclavicle -1.05356e-014 -2.62396e-014
lhumerus 52.9081 -44.2152 4.2851
lradius 123.916
lwrist 103.275
lhand 8.11013 32.9379
lfingers 7.12502
lthumb 33.3317 59.8675
rfemur 1.21327 0.859005 17.9231
rtibia 18.8894
rfoot -21.5732 -6.02503
rtoes -2.67448
lfemur 1.74065 1.42798 -17.3897
ltibia 11.3701
lfoot -9.872 -5.54428
ltoes 3.42628
686
root 3.09669 17.6453 0.272463 -191.932 84.2109 -189.725
lowerback 3.54202 1.0519 4.24669
upperback -2.1527 1.71657 1.4358
thorax -4.13478 0.766537 -1.01693
lowerneck -8.16868 -6.02065 -3.30924
upperneck 21.0923 -9.8161 12.0517
head 8.69144 -3.49308 3.65796
rclavicle -1.39149e-015 -6.36111e-015
rhumerus 47.8775 32.1153 -22.4996
rradius 123.301
rwrist -66.9365
rhand -5.49716 6.17181
rfingers 7.12502
rthumb 20.3157 -22.7856
lclavicle -1.39149e-015 -6.36111e-015
lhumerus 50.057 -41.1515 9.14224
lradius 122.441
lwrist 104.225
lhand 7.4886 31.8428
lfingers 7.12502
lthumb 32.7407 58.8974
rfemur 1.17019 0.932291 17.8894
rtibia 18.9436
rfoot -21.4736 -6.01222
rtoes -2.84078
lfemur 1.80559 1.49862 -17.4169
ltibia 11.2818
lfoot -9.86065 -5.44208
ltoes 2.96351
687
root 3.10471 17.6451 0.275052 -192.074 84.3005 -189.834
lowerback 3.33718 1.00549 4.15191
upperback -2.24048 1.63228 1.25476
thorax -4.11072 0.723293 -1.14164
lowerneck -7.92606 -6.15636 -3.44137
upperneck 21.3194 -9.99232 12.0156
head 8.74339 -3.58417 3.65862
rclavicle 3.06128e-014 1.43125e-014
rhumerus 46.5008 31.2696 -24.8578
rradius 122.063
rwrist -67.8166
rhand -7.08745 6.85569
rfingers 7.12502
rthumb 18.7867 -22.2571
lclavicle 3.06128e-014 1.43125e-014
lhumerus 47.7078 -38.3787 13.6949
lradius 120.346
lwrist 104.216
lhand 7.18633 30.4976
lfingers 7.12502
lthumb 32.453 57.6117
rfemur 1.18472 1.03096 17.9123
rtibia 19.0059
rfoot -21.4321 -6.03805
rtoes -2.9858
lfemur 1.93741 1.51083 -17.3949
ltibia 11.1892
lfoot -9.8305 -5.36318
ltoes 3.31727
688
root 3.11446 17.644 0.279143 -192.335 84.4103 -190.036
lowerback 3.12775 0.898334 3.97937
upperback -2.29729 1.46631 1.15415
thorax -4.06004 0.644175 -1.13466
lowerneck -7.78243 -6.27666 -3.72487
upperneck 21.5903 -10.1405 12.0083
head 8.83601 -3.66822 3.69577
rclavicle 1.88845e-015 -7.95139e-015
rhumerus 45.1637 30.8391 -27.2259
rradius 120.665
rwrist -68.464
rhand -8.75972 7.62969
rfingers 7.12502
rthumb 17.1777 -21.631
lclavicle 1.88845e-015 -7.95139e-015
lhumerus 45.5131 -35.852 18.0985
lradius 117.879
lwrist 103.533
lhand 7.00183 29.0981
lfingers 7.12502
lthumb 32.2774 56.248
rfemur 1.24666 1.20461 17.9466
rtibia 19.0405
rfoot -21.4553 -6.10286
rtoes -2.96019
lfemur 2.06021 1.55826 -17.3734
ltibia 11.1916
lfoot -9.87574 -5.30136
ltoes 3.57934
689
root 3.12423 17.6431 0.28327 -192.674 84.5573 -190.358
lowerback 2.84868 0.759379 3.78295
upperback -2.34884 1.2552 1.07353
thorax -3.96702 0.544579 -1.09043
lowerneck -7.68834 -6.37523 -3.92647
upperneck 21.8616 -10.2546 11.9081
head 8.92623 -3.73877 3.68934
rclavicle 1.6201e-014 -7.95139e-015
rhumerus 43.8357 30.7093 -29.6539
rradius 119.031
rwrist -68.5673
rhand -10.4746 8.22197
rfingers 7.12502
rthumb 15.5266 -21.1747
lclavicle 1.6201e-014 -7.95139e-015
lhumerus 43.4845 -33.6197 22.2479
lradius 115.314
lwrist 102.728
lhand 6.48702 27.7741
lfingers 7.12502
lthumb 31.7873 55.0225
rfemur 1.25843 1.38252 17.9691
rtibia 19.0721
rfoot -21.5006 -6.01004
rtoes -2.61302
lfemur 2.12445 1.5797 -17.3636
ltibia 11.2234
lfoot -9.96582 -5.19824
ltoes 3.64313
690
root 3.13218 17.6425 0.290385 -192.353 84.7924 -189.978
lowerback 2.61221 0.437758 3.49613
upperback -2.26556 0.806973 1.26604
thorax -3.77278 0.337079 -0.701738
lowerneck -8.13742 -6.32828 -4.52011
upperneck 22.3295 -10.1204 11.7121
head 9.1787 -3.71809 3.7317
rclavicle 7.55382e-015 -1.59028e-015
rhumerus 43.2576 30.9478 -31.7313
rradius 117.177
rwrist -67.6095
rhand -12.1569 8.33655
rfingers 7.12502
rthumb 13.9058 -21.1785
lclavicle 7.55382e-015 -1.59028e-015
lhumerus 40.9915 -31.1705 26.5742
lradius 112.651
lwrist 102
lhand 5.80135 26.4908
lfingers 7.12502
lthumb 31.134 53.8666
rfemur 1.27652 1.54292 18.0828
rtibia 19.1232
rfoot -21.4965 -5.93171
rtoes -2.51519
lfemur 2.26345 1.57539 -17.2576
ltibia 11.2142
lfoot -10.084 -5.03336
ltoes 3.55299
691
root 3.14168 17.6395 0.29694 -192.037 85.006 -189.542
lowerback 2.36974 0.225668 3.261
upperback -2.21374 0.502986 1.32319
thorax -3.59484 0.195848 -0.492571
lowerneck -8.25587 -6.42902 -4.8393
upperneck 22.6086 -10.2127 11.5551
head 9.31461 -3.79253 3.72082
rclavicle -1.40143e-014 -7.95139e-015
rhumerus 41.703 31.3244 -34.5534
rradius 115.279
rwrist -65.4596
rhand -13.4294 7.82555
rfingers 7.12502
rthumb 12.6793 -21.7696
lclavicle -1.40143e-014 -7.95139e-015
lhumerus 39.0705 -29.232 30.4727
lradius 109.912
lwrist 101.56
lhand 4.97722 24.6962
lfingers 7.12502
lthumb 30.3482 52.2198
rfemur 1.33681 1.60372 18.1711
rtibia 19.2242
rfoot -21.4776 -5.78313
rtoes -2.57515
lfemur 2.50684 1.44284 -17.1726
ltibia 11.1468
lfoot -10.2269 -4.76566
ltoes 3.51665
692
root 3.15383 17.6362 0.302298 -192.673 85.2146 -190.006
lowerback 2.07388 0.0970436 2.98942
upperback -2.2624 0.305922 1.24144
thorax -3.48424 0.104295 -0.413407
lowerneck -7.63337 -6.60588 -4.9853
upperneck 22.5706 -10.4243 11.5078
head 9.20794 -3.93009 3.72043
rclavicle -5.1684e-015 3.18055e-015
rhumerus 39.178 31.9228 -38.0441
rradius 113.475
rwrist -62.806
rhand -14.6574 6.98074
rfingers 7.12502
rthumb 11.4952 -22.6841
lclavicle -5.1684e-015 3.18055e-015
lhumerus 37.3714 -27.9447 34.151
lradius 107.187
lwrist 101.13
lhand 3.52856 22.6885
lfingers 7.12502
lthumb 28.9655 50.4582
rfemur 1.45258 1.58856 18.1511
rtibia 19.3552
rfoot -21.4249 -5.57824
rtoes -2.95392
lfemur 2.84795 1.27221 -17.1957
ltibia 11.0399
lfoot -10.4568 -4.35768
ltoes 3.03694
693
root 3.16289 17.6307 0.308767 -194.284 85.4426 -191.435
lowerback 1.75925 0.0805133 2.73129
upperback -2.31271 0.253489 0.995561
thorax -3.35897 0.081397 -0.518622
lowerneck -6.75636 -6.87396 -4.85642
upperneck 22.3201 -10.7997 11.5431
head 8.9865 -4.12738 3.68989
rclavicle 4.47266e-015 3.18055e-015
rhumerus 36.0516 32.3901 -41.9619
rradius 111.543
rwrist -59.8693
rhand -15.2325 6.48915
rfingers 7.12502
rthumb 10.9405 -23.2058
lclavicle 4.47266e-015 3.18055e-015
lhumerus 36.0073 -27.1038 37.5076
lradius 104.705
lwrist 101.078
lhand 0.714774 20.9494
lfingers 7.12502
lthumb 26.2748 49.15
rfemur 1.56419 1.57167 18.0643
rtibia 19.4941
rfoot -21.3138 -5.3551
rtoes -3.40192
lfemur 3.20371 1.08013 -17.293
ltibia 10.9275
lfoot -10.6887 -3.97032
ltoes 2.45237
694
root 3.17142 17.6241 0.313608 -195.91 85.7679 -192.83
lowerback 1.52692 0.0823006 2.5514
upperback -2.2885 0.232426 0.784708
thorax -3.20249 0.0733799 -0.633265
lowerneck -6.19525 -7.15484 -4.80736
upperneck 22.2049 -11.2085 11.6448
head 8.88459 -4.32565 3.68694
rclavicle -9.88954e-015 3.97569e-015
rhumerus 32.8887 32.7335 -45.8827
rradius 109.467
rwrist -56.8034
rhand -14.6705 6.86383
rfingers 7.12502
rthumb 11.4825 -22.8017
lclavicle -9.88954e-015 3.97569e-015
lhumerus 34.6965 -26.4793 40.7028
lradius 102.355
lwrist 101.534
lhand -3.12543 18.6455
lfingers 7.12502
lthumb 22.5936 47.3433
rfemur 1.70815 1.65862 18.0196
rtibia 19.6529
rfoot -21.2563 -5.08575
rtoes -3.25035
lfemur 3.62624 1.0385 -17.3432
ltibia 10.8014
lfoot -10.8858 -3.6322
ltoes 1.94654
695
root 3.18081 17.6166 0.317532 -196.268 86.1413 -192.947
lowerback 1.37136 -0.00538662 2.39585
upperback -2.29886 0.105115 0.762414
thorax -3.12894 0.0140563 -0.563566
lowerneck -5.64271 -7.33778 -4.92787
upperneck 22.1586 -11.4388 11.6185
head 8.79254 -4.46698 3.6902
rclavicle -1.05853e-014 -1.15295e-014
rhumerus 29.6678 33.2415 -49.794
rradius 107.554
rwrist -54.3663
rhand -13.975 7.00998
rfingers 7.12502
rthumb 12.1532 -22.617
lclavicle -1.05853e-014 -1.15295e-014
lhumerus 33.042 -26.0888 43.9317
lradius 100.139
lwrist 101.136
lhand -7.5822 15.5547
lfingers 7.12502
lthumb 18.3108 44.7129
rfemur 1.86677 1.70082 18.0962
rtibia 19.8097
rfoot -21.2139 -4.8522
rtoes -3.16884
lfemur 4.05733 1.01718 -17.2638
ltibia 10.7079
lfoot -11.1123 -3.35126
ltoes 1.95715
696
root 3.18932 17.6074 0.321979 -198.5 86.5043 -194.904
lowerback 1.28217 -0.114587 2.11145
upperback -2.30646 -0.051872 0.756541
thorax -3.0898 -0.0573578 -0.404126
lowerneck -5.08938 -7.51145 -5.06509
upperneck 22.1653 -11.6363 11.4744
head 8.70931 -4.60405 3.66123
rclavicle -1.78906e-015 1.98785e-015
rhumerus 26.183 33.7109 -53.9397
rradius 105.676
rwrist -52.3815
rhand -13.5561 6.50154
rfingers 7.12502
rthumb 12.5571 -23.1011
lclavicle -1.78906e-015 1.98785e-015
lhumerus 31.2714 -25.9536 46.9531
lradius 97.9791
lwrist 99.0901
lhand -12.7138 12.1803
lfingers 7.12502
lthumb 13.3691 41.7314
rfemur 2.08702 1.77442 18.0656
rtibia 19.9169
rfoot -21.2024 -4.62153
rtoes -3.09411
lfemur 4.4694 0.92779 -17.3154
ltibia 10.7322
lfoot -11.4379 -2.95439
ltoes 1.72113
697
root 3.19949 17.5961 0.324955 -200.913 86.9383 -196.994
lowerback 1.14047 -0.176295 1.94261
upperback -2.20001 -0.147616 0.716683
thorax -2.90144 -0.100395 -0.347486
lowerneck -4.65829 -7.72709 -5.21371
upperneck 22.1523 -11.9141 11.4312
head 8.65799 -4.76708 3.65608
rclavicle 1.73937e-015 -4.37326e-015
rhumerus 22.5024 33.8551 -58.2203
rradius 103.739
rwrist -50.4018
rhand -13.5175 5.72878
rfingers 7.12502
rthumb 12.5943 -23.8716
lclavicle 1.73937e-015 -4.37326e-015
lhumerus 29.6787 -26.1289 49.4876
lradius 95.8849
lwrist 95.9017
lhand -18.698 8.66339
lfingers 7.12502
lthumb 7.59667 38.507
rfemur 2.37687 1.93778 18.0986
rtibia 19.9998
rfoot -21.1851 -4.47316
rtoes -3.64141
lfemur 4.94901 0.909922 -17.3098
ltibia 10.7907
lfoot -11.7912 -2.64553
ltoes 1.90765
698
root 3.20972 17.5835 0.327045 -202.89 87.4444 -198.642
lowerback 0.764648 -0.233927 1.86666
upperback -1.90618 -0.244659 0.702839
thorax -2.38853 -0.143382 -0.318312
lowerneck -4.34577 -7.91223 -5.41116
upperneck 22.0624 -12.1644 11.5004
head 8.6109 -4.91221 3.69527
rclavicle -9.93923e-016 5.1684e-015
rhumerus 19.0434 33.6807 -62.2842
rradius 101.779
rwrist -48.7845
rhand -13.8269 5.00314
rfingers 7.12502
rthumb 12.296 -24.6153
lclavicle -9.93923e-016 5.1684e-015
lhumerus 28.2567 -26.4532 51.5622
lradius 93.6792
lwrist 91.7782
lhand -25.1137 5.04159
lfingers 7.12502
lthumb 1.40174 35.0167
rfemur 2.6509 2.09347 18.2015
rtibia 20.1035
rfoot -21.1975 -4.13484
rtoes -3.35623
lfemur 5.45487 1.05174 -17.2024
ltibia 10.8023
lfoot -12.0942 -2.44401
ltoes 1.74517
